<svg height="512" viewBox="0 0 64 64" width="512" xmlns="http://www.w3.org/2000/svg"><g id="flat"><path d="m27.963 18c-2.963-2-3.963-3-7.963-3-9.941 0-17 10.059-17 20v1a25 25 0 0 0 25 25h8c19-1 25-11 25-26v-1c0-7-6-18-18-17z" fill="#e1462b"/><path d="m39 22c0-1.352 1.5-3.752 4-5 2-1 5-3 9-4-10-4-15.739 1.482-17 3l-4-7-4-5a15.548 15.548 0 0 0 -1 9 12.226 12.226 0 0 0 1 3c-2-1.058-5.152-2-7-5a20.555 20.555 0 0 1 -2-6c-6 9 4 18 11 17l5 2z" fill="#c8d952"/><path d="m29 22c-2.589-5.663-.772-11.016 3-15 1.725-1.822 4.194-4 6-4a2.72 2.72 0 0 1 3 3c0 1 0 2-2 3a8 8 0 0 0 -4 5c-.5 2.467 1.735 6.169 4 8v3z" fill="#55b56a"/><g fill="#f98c96"><path d="m42.205 55.979-.41-1.958a15.411 15.411 0 0 0 7.521-3.75c5.437-5.1 6.546-14.7 2.759-23.89l1.85-.762c4.165 10.113 2.893 20.362-3.241 26.11a17.381 17.381 0 0 1 -8.479 4.25z"/><path d="m38 54h2v2h-2z"/><path d="m22 35h2v2h-2z"/><path d="m19 40h2v2h-2z"/></g><path d="m44.187 21.982a6 6 0 0 1 4.274.86l1.078-1.684a8.028 8.028 0 0 0 -5.726-1.14 8.3 8.3 0 0 0 -5.588 4.3 19.806 19.806 0 0 0 -8.178-2.318c-7.418-.354-11.188 4.091-13.9 8.485a18.48 18.48 0 0 0 -2.122 13.743l1.946-.458a16.461 16.461 0 0 1 1.878-12.235c3.453-5.6 6.961-7.781 12.1-7.537 8.977.426 15.138 8.448 15.192 8.529l.859-.516.887-.463a24.916 24.916 0 0 0 -6.927-6.234 6.217 6.217 0 0 1 4.227-3.332z" fill="#c9311c"/></g></svg>